<?xml version="1.0" encoding="UTF-8"?>
<svg width="700pt" height="700pt" version="1.1" viewBox="0 0 700 700" xmlns="http://www.w3.org/2000/svg" xmlns:xlink="http://www.w3.org/1999/xlink">
 <defs>
  <symbol id="w" overflow="visible">
   <path d="m0.03125 0h-0.015625-0.015625v-0.015625-0.015625h0.015625 0.015625-0.015625v0.015625 0.015625h0.015625v-0.015625z"/>
  </symbol>
  <symbol id="e" overflow="visible">
   <path d="m0.015625-0.015625v0.015625h-0.015625v-0.03125h0.015625v0.015625-0.015625z"/>
  </symbol>
  <symbol id="b" overflow="visible">
   <path d="m0.03125-0.015625h-0.015625v0.015625c0.0078125 0 0.015625-0.0039062 0.015625-0.015625v0.015625h-0.015625-0.015625v-0.015625l0.015625-0.015625v0.015625h0.015625z"/>
  </symbol>
  <symbol id="a" overflow="visible">
   <path d="m0.015625-0.015625v0.015625-0.015625zm0.015625 0v0.015625h-0.015625-0.015625v-0.015625h0.015625-0.015625v-0.015625h0.015625v0.015625h0.015625z"/>
  </symbol>
  <symbol id="d" overflow="visible">
   <path d="m0.015625-0.03125v0.015625 0.015625h-0.015625v-0.015625-0.015625z"/>
  </symbol>
  <symbol id="l" overflow="visible">
   <path d="m0.015625-0.015625v-0.015625h0.015625v0.03125h-0.015625-0.015625v-0.015625l0.015625-0.015625v0.015625zm0 0.015625v-0.015625 0.015625z"/>
  </symbol>
  <symbol id="k" overflow="visible">
   <path d="m0.015625 0v-0.015625 0.015625zm0-0.015625v-0.015625c0.0078125 0 0.015625 0.0078125 0.015625 0.015625v0.015625h-0.015625-0.015625v-0.03125h0.015625z"/>
  </symbol>
  <symbol id="j" overflow="visible">
   <path d="m0-0.03125h0.015625v0.015625-0.015625h0.015625l-0.015625 0.03125v0.015625h-0.015625v-0.015625h0.015625z"/>
  </symbol>
  <symbol id="i" overflow="visible">
   <path d="m0.015625-0.03125v0.015625 0.015625h0.015625v-0.015625c0-0.0078125-0.0078125-0.015625-0.015625-0.015625zm0 0h0.015625v0.015625 0.015625h-0.015625-0.015625v-0.015625-0.015625h0.015625z"/>
  </symbol>
  <symbol id="v" overflow="visible">
   <path d="m0-0.03125h0.015625v0.03125h-0.015625z"/>
  </symbol>
  <symbol id="f" overflow="visible">
   <path d="m0.03125-0.015625v0.015625h-0.015625v-0.015625 0.015625h-0.015625v-0.03125h0.015625v0.015625-0.015625c0.0078125 0 0.015625 0.0078125 0.015625 0.015625z"/>
  </symbol>
  <symbol id="h" overflow="visible">
   <path d="m0-0.03125h0.015625 0.015625v0.015625h-0.015625v0.015625h-0.015625zm0.015625 0v0.015625-0.015625z"/>
  </symbol>
  <symbol id="g" overflow="visible">
   <path d="m0.03125-0.03125v0.015625h-0.015625c0.0078125 0 0.015625 0.0078125 0.015625 0.015625h-0.015625-0.015625 0.015625v-0.015625h-0.015625l0.015625-0.015625h0.015625z"/>
  </symbol>
  <symbol id="c" overflow="visible">
   <path d="m0.015625-0.015625v0.015625-0.015625zm0-0.015625v0.015625h0.015625c0 0.011719-0.0078125 0.015625-0.015625 0.015625h-0.015625v-0.015625l0.015625-0.015625z"/>
  </symbol>
  <symbol id="u" overflow="visible">
   <path d="m0-0.03125h0.015625v0.015625-0.015625h0.015625l-0.015625 0.03125z"/>
  </symbol>
  <symbol id="t" overflow="visible">
   <path d="m0-0.03125h0.015625v0.015625-0.015625h0.015625l-0.015625 0.015625 0.015625 0.015625h-0.015625v-0.015625 0.015625h-0.015625z"/>
  </symbol>
  <symbol id="s" overflow="visible">
   <path d="m0.015625-0.03125v0.03125h-0.015625v-0.03125h0.015625z"/>
  </symbol>
  <symbol id="r" overflow="visible">
   <path d="m0.03125-0.015625v-0.015625c0.0078125 0 0.015625 0.0078125 0.015625 0.015625v0.015625h-0.015625v-0.015625 0.015625h-0.015625v-0.015625 0.015625h-0.015625v-0.03125h0.015625v0.015625-0.015625 0.015625h0.015625z"/>
  </symbol>
  <symbol id="q" overflow="visible">
   <path d="m0.03125-0.015625v0.015625h-0.015625v-0.015625 0.015625h-0.015625v-0.03125h0.015625v0.015625-0.015625c0.0078125 0 0.015625 0.0078125 0.015625 0.015625z"/>
  </symbol>
  <symbol id="p" overflow="visible">
   <path d="m0-0.03125h0.015625l0.015625 0.015625v-0.015625 0.03125l-0.015625-0.015625v0.015625h-0.015625z"/>
  </symbol>
  <symbol id="o" overflow="visible">
   <path d="m0-0.015625v-0.015625h0.015625v0.015625 0.015625-0.015625-0.015625h0.015625v0.03125h-0.015625-0.015625v-0.015625z"/>
  </symbol>
  <symbol id="n" overflow="visible">
   <path d="m0-0.03125h0.015625v0.03125h-0.015625v0.015625zm0 0h0.015625z"/>
  </symbol>
  <symbol id="m" overflow="visible">
   <path d="m0.03125-0.03125v0.015625h-0.015625v0.015625h0.015625-0.015625-0.015625v-0.015625l0.015625-0.015625h0.015625z"/>
  </symbol>
 </defs>
 <g>
  <path d="m575.55 350.12c-1.9883 0.50391-4.0117-0.69141-4.5156-2.6875-0.50391-1.9883 0.69141-4.0117 2.6875-4.5156 6.7383-1.7344 11.676 0.59766 14.719 5.0391 1.1562 1.6992 1.9961 3.7148 2.5117 5.9258 7.1875 16.875 3.5742 32.527-5.6367 44.102-4.4531 5.5898-10.219 10.211-16.715 13.543-6.4766 3.3242-13.684 5.3555-21 5.7695-14.625 0.83203-29.719-4.7148-40.523-19.188-1.3828 0.67969-2.7891 1.3086-4.2383 1.8672-2.4258 0.94141-4.9648 1.7266-7.6055 2.3242-12.535 2.8359-25.348 1.7539-37.91-2.0625-2.6523-0.80078-5.2812-1.7266-7.9062-2.7617-1.8867 7.168-2.9961 13.879-2.8672 20.289 0.14062 6.6641 1.6523 13.086 5.1133 19.469 4.1172 7.6172 11.379 12.871 18.637 14.68 3.3242 0.83203 6.5977 0.93359 9.5 0.17578 2.7422-0.71094 5.1797-2.2031 7.0078-4.582 1.1953-1.5586 2.1562-3.5 2.8008-5.8516 0.027344-0.14844 0.066406-0.29688 0.11328-0.44922 0.95312-3.7812 1.1211-8.5977 0.23438-14.551-0.29688-2.0352 1.1094-3.9297 3.1562-4.2266 2.0352-0.29688 3.9297 1.1094 4.2266 3.1562 1.0352 6.9453 0.79297 12.75-0.41016 17.492-1 6.9062-3.9844 14.027-9.4531 19.785-4.6484 4.8906-11.051 8.7734-19.508 10.648-4.5352 1.0078-9.043 1.3711-13.469 1.1562-13.402-0.63281-26.031-6.4766-36.035-15.484-9.9414-8.9492-17.312-21.074-20.254-34.328-0.46484-2.1016-0.82031-4.2266-1.0547-6.375-3.9648 3.7148-8.3633 7.3086-13.121 10.863 4.1914 4.5156 8.1758 9.1016 11.508 14.066 3.9766 5.9258 6.9727 12.293 8.1758 19.555 1.0938 6.5352 2.4531 15.074 2.2109 23.332-0.085938 2.8359-0.36328 5.6289-0.90625 8.2891 6.9531-4.2266 14.242-6.8594 23.445-4.7891 6.5156 1.4766 14.168 6.6719 19.48 13.281 1.4375 1.7812 2.707 3.6875 3.7617 5.6562 0.046874 0.074219 0.085937 0.16016 0.12891 0.24219 2.3438 4.4805 3.5469 9.332 2.8477 14.066-0.60547 4.125-2.5469 8.4766-6.9922 12.254-3.3711 2.8672-8.1758 5.3945-14.969 7.1758-1.9883 0.52344-4.0234-0.66406-4.5547-2.6523-0.52344-1.9883 0.66406-4.0234 2.6523-4.5547 5.6172-1.4766 9.4531-3.4453 12.02-5.6289 2.8477-2.4258 4.0781-5.1328 4.4531-7.6719 0.44922-3.0352-0.375-6.2734-1.9883-9.3906-0.54297-0.74609-1.1016-1.3906-1.6797-1.9609-3.0039-2.9414-6.5898-3.5859-9.9492-3.1172-3.707 0.51172-7.1953 2.2852-9.5469 3.9648-0.82031 0.58984-1.4766 1.1367-1.9219 1.5977-3.9648 4.0586-6.793 9.1758-9.6328 14.309-6.5703 11.883-13.199 23.867-33.602 27.523-10.723 1.9219-20.449 2.0352-29.156 0.64453-0.21484 0.074219-0.4375 0.12109-0.66406 0.16016-4.2734 0.625-8.8125 0.87891-13.617 0.74609-4.6094-0.12891-9.4531-0.63281-14.512-1.5508-20.395-3.6602-27.02-15.645-33.602-27.523-2.8359-5.1328-5.6641-10.246-9.6328-14.309-0.44922-0.45703-1.1016-1.0078-1.9219-1.5977-2.3516-1.6797-5.8438-3.4531-9.5469-3.9648-3.3594-0.46484-6.9453 0.17578-9.9492 3.1172-0.57812 0.55859-1.1367 1.2148-1.6797 1.9609-1.6133 3.1172-2.4258 6.3555-1.9883 9.3906 0.375 2.5391 1.6055 5.2539 4.4531 7.6719 2.5664 2.1836 6.4023 4.1523 12.02 5.6289 1.9883 0.52344 3.1719 2.5586 2.6523 4.5547-0.52344 1.9883-2.5586 3.1719-4.5547 2.6523-6.7852-1.7812-11.602-4.3125-14.969-7.1758-4.4414-3.7812-6.3828-8.1289-6.9922-12.254-0.69141-4.7422 0.50391-9.5859 2.8477-14.066 0.039063-0.085937 0.085938-0.16016 0.12891-0.24219 1.0547-1.9688 2.332-3.875 3.7617-5.6562 5.3125-6.6172 12.965-11.809 19.48-13.281 6.1406-1.3906 11.535-0.625 16.605 1.3516 2.5938 1.0156 5.0781 2.3438 7.5039 3.8438-1.3906-10.246-1.1758-21.121 0.64453-32.043 1.2617-7.5977 4.4688-14.215 8.7266-20.355 3.2188-4.6484 7-8.9883 10.957-13.262-4.7617-3.5547-9.1484-7.1406-13.121-10.863-0.23437 2.1484-0.58984 4.2734-1.0547 6.375-2.9414 13.254-10.312 25.367-20.254 34.328-9.9961 9.0078-22.633 14.848-36.035 15.484-4.4258 0.20703-8.9336-0.14844-13.469-1.1562-8.4453-1.875-14.859-5.7578-19.508-10.648-5.4688-5.7578-8.457-12.879-9.4531-19.785-1.2031-4.7422-1.4453-10.547-0.41016-17.492 0.29688-2.0352 2.1914-3.4453 4.2266-3.1562 2.0352 0.29688 3.4453 2.1914 3.1562 4.2266-0.88672 5.9648-0.71875 10.77 0.23438 14.551 0.046875 0.14063 0.085938 0.28906 0.11328 0.44922 0.64453 2.3633 1.5977 4.3008 2.8008 5.8516 1.8281 2.3789 4.2656 3.875 7.0078 4.582 2.8945 0.75781 6.168 0.65234 9.5-0.17578 7.2539-1.8203 14.512-7.0664 18.637-14.68 3.4531-6.3945 4.9766-12.805 5.1133-19.469 0.14062-6.4102-0.98047-13.121-2.8672-20.289-2.6211 1.0352-5.2539 1.9609-7.9062 2.7617-12.555 3.8164-25.379 4.8984-37.91 2.0625-2.6406-0.59766-5.1719-1.3828-7.6055-2.3242-1.4375-0.55859-2.8555-1.1836-4.2383-1.8672-10.816 14.477-25.898 20.02-40.523 19.188-7.3164-0.42188-14.523-2.4453-21-5.7695-6.4961-3.332-12.273-7.9531-16.715-13.543-9.2109-11.582-12.824-27.227-5.6367-44.102 0.51172-2.2109 1.3516-4.2266 2.5117-5.9258 3.043-4.4414 7.9805-6.7656 14.719-5.0391 1.9883 0.50391 3.1914 2.5312 2.6875 4.5156-0.50391 1.9883-2.5312 3.1914-4.5156 2.6875-3.1914-0.82031-5.4336 0.14062-6.7305 2.0352-0.66406 0.96875-1.1484 2.1484-1.457 3.4609-0.019531 0.12891-0.046875 0.26172-0.085937 0.39062-0.42188 2.0898-0.41016 4.5156 0.027344 6.9805 0.78516 4.3672 2.9297 8.7734 6.4766 11.797 5.0586 4.3125 13.207 5.7773 24.734 0.17578 5.6172-2.7266 9.9414-6.0859 13.289-9.9219-6.8398-11.555-12.602-24.574-18.293-37.438-3.043-6.8789-6.0664-13.719-9.1367-20.066-3.7812-7.832-8.4844-13.086-13.254-16.277-5.4141-3.6133-10.836-4.5-14.934-3.4141-2.6328 0.69922-5.0117 2.2773-6.8594 4.3594-1.5391 1.7266-2.6875 3.7891-3.3047 5.9648-0.59766 2.1094-0.67969 4.3398-0.12109 6.4688 0.57031 2.1289 1.8125 4.2109 3.8906 6.0586 0.046875 0.039062 0.09375 0.085937 0.12891 0.12109 1.2148 1.0078 2.5312 1.875 3.9297 2.5469 3.6484 1.7734 7.8008 2.2695 11.73 0.87891 0.59766-0.21484 1.1562-0.44922 1.6602-0.69922 1.8398-0.91406 4.0703-0.17578 4.9844 1.6602 0.91406 1.8398 0.17578 4.0703-1.6602 4.9844-0.86719 0.4375-1.707 0.79297-2.5117 1.082-5.9258 2.1016-12.098 1.4102-17.453-1.1953-1.9609-0.95312-3.8086-2.1641-5.4961-3.5859-0.09375-0.074218-0.1875-0.14844-0.28125-0.22266-0.16016-0.14062-0.32812-0.28906-0.47656-0.4375-2.4844-2.2578-4.582-4.9844-6.1133-8.0273-0.50391-1.0078-0.93359-1.9961-1.2773-2.9766-2.0703-5.8438-2.875-11.609-2.5742-17.051 0.41016-7.4375 2.875-14.254 6.9922-19.832 4.1328-5.6094 9.9023-9.957 16.902-12.441 4.9102-1.7461 10.426-2.5586 16.391-2.2305 7.9336 0.4375 14.68 4.0234 20.367 9.7812 6.0859 6.168 10.902 14.859 14.605 24.754l0.79297 2.1367c3.7422 10.043 7.8945 21.16 13.785 30.754l0.027344-0.50391c1.4922-23.586 3.0039-47.461 28.391-61.863 0.046875-0.027344 0.09375-0.054687 0.14062-0.074218 12.805-6.5781 30.117-4.7617 46.992-2.9883 23.418 2.4531 45.875 4.8164 48.777-18.273 0.066406-8.8477-2.3047-16.277-6.0195-22.902-3.8633-6.8867-9.2383-13-14.887-18.918-21.402-22.418-31.203-49.512-31.695-76.199-0.29687-16.285 2.875-32.406 8.9961-47.199 6.1406-14.82 15.23-28.309 26.758-39.312 18.117-17.293 42.223-28.449 70.297-28.969h0.12109c27.793 0.51172 51.531 11.453 69.328 28.457 11.395 10.883 20.367 24.258 26.402 38.957 6.0312 14.68 9.1367 30.707 8.8398 46.918-0.50391 27.047-10.473 54.609-32.191 77.355-5.6484 5.918-11.023 12.031-14.887 18.918-3.7227 6.625-6.0859 14.055-6.0195 22.902 2.8945 23.082 25.359 20.73 48.777 18.273 16.781-1.7656 34-3.5664 46.789 2.8828 0.12109 0.054688 0.23438 0.11328 0.35547 0.17578 25.387 14.402 26.898 38.277 28.391 61.863l0.027344 0.50391c5.8984-9.5938 10.043-20.711 13.785-30.754l0.79297-2.1367c3.707-9.8945 8.5195-18.582 14.605-24.754 5.6758-5.7578 12.422-9.3438 20.367-9.7812 5.9648-0.32812 11.48 0.48438 16.391 2.2305 7 2.4844 12.77 6.832 16.902 12.441 4.1172 5.582 6.5781 12.395 6.9922 19.832 0.29688 5.4492-0.50391 11.219-2.5742 17.051-0.34375 0.98047-0.77344 1.9805-1.2773 2.9766-1.5195 3.043-3.6211 5.7695-6.1133 8.0273-0.16016 0.14844-0.31641 0.28906-0.47656 0.4375-0.09375 0.085938-0.1875 0.16016-0.28125 0.22266-1.6875 1.4297-3.5469 2.6328-5.4961 3.5859-5.3555 2.6055-11.516 3.3047-17.453 1.1953-0.80078-0.28125-1.6328-0.64453-2.5117-1.082-1.8398-0.91406-2.5742-3.1562-1.6602-4.9844 0.91406-1.8398 3.1562-2.5742 4.9844-1.6602 0.50391 0.25391 1.0625 0.48438 1.6602 0.69922 3.9297 1.3906 8.082 0.89453 11.73-0.87891 1.3984-0.67969 2.7148-1.5391 3.9297-2.5469 0.046876-0.046875 0.085938-0.085938 0.12891-0.12109 2.082-1.8477 3.332-3.9297 3.8906-6.0586 0.57031-2.1289 0.47656-4.3477-0.12109-6.4688-0.61719-2.1758-1.7656-4.2266-3.3047-5.9648-1.8477-2.082-4.2266-3.6602-6.8594-4.3594-4.0977-1.082-9.5195-0.19531-14.934 3.4141-4.7695 3.1836-9.4727 8.4453-13.254 16.277-3.0625 6.3477-6.0938 13.188-9.1367 20.066-5.6914 12.871-11.453 25.883-18.293 37.438 3.3516 3.8359 7.6719 7.1875 13.289 9.9219 11.527 5.6016 19.684 4.1445 24.734-0.17578 3.5391-3.0234 5.6836-7.4297 6.4766-11.797 0.44922-2.4727 0.44922-4.8906 0.027344-6.9805-0.039063-0.12891-0.066406-0.26172-0.085938-0.39062-0.30859-1.3164-0.79297-2.5-1.457-3.4609-1.2969-1.8945-3.5391-2.8555-6.7305-2.0352zm-206.51-308.14c-1.9141-0.76562-2.8359-2.9297-2.0703-4.8438 0.76562-1.9141 2.9297-2.8359 4.8438-2.0703 4.8984 1.9609 10.555 4.9922 15.754 8.5312 4.7227 3.2109 9.1172 6.8984 12.301 10.629 1.3242 1.5586 1.1367 3.9102-0.42188 5.2344-1.5586 1.3242-3.9102 1.1367-5.2344-0.42188-2.6875-3.1562-6.5781-6.3828-10.844-9.2852-4.7617-3.2383-9.9023-6-14.316-7.7734zm218.1 332.66c-1.3516 2.1484-3.0039 4.125-4.9844 5.8164-7.1211 6.0742-18.07 8.3906-32.816 1.2227-26.918-13.066-28.422-36.895-29.949-61.02-1.3633-21.59-2.7539-43.438-24.629-55.852-10.836-5.4805-26.973-3.7812-42.711-2.1289-27.152 2.8477-53.199 5.5898-56.953-24.855-0.027343-0.24219-0.039062-0.48438-0.019531-0.72656-0.09375-10.332 2.6523-18.977 6.9531-26.648 4.2461-7.5703 9.9883-14.113 15.996-20.402 20.336-21.309 29.68-47.078 30.148-72.344 0.28125-15.195-2.6328-30.203-8.2773-43.969-5.6484-13.746-14.008-26.234-24.648-36.391-16.512-15.766-38.508-25.918-64.262-26.414-26.031 0.49609-48.402 10.863-65.223 26.926-10.77 10.285-19.273 22.895-25.004 36.746-5.75 13.879-8.7266 28.988-8.4453 44.25 0.46484 24.891 9.6328 50.203 29.66 71.176 6.0117 6.3008 11.75 12.832 15.996 20.402 4.3477 7.7461 7.1016 16.492 6.9531 26.965 0 0.14062-0.007813 0.26953-0.027344 0.41016h0.007812c-3.7539 30.445-29.801 27.711-56.953 24.855-15.734-1.6523-31.875-3.3398-42.711 2.1289-21.879 12.414-23.258 34.262-24.629 55.852-1.5312 24.125-3.0352 47.953-29.949 61.02-14.746 7.1602-25.695 4.8516-32.816-1.2227-1.9805-1.6875-3.6406-3.668-4.9844-5.8164 0.625 7.0078 3.4258 13.375 7.6641 18.695 3.7969 4.7695 8.7266 8.7188 14.27 11.562 5.5625 2.8555 11.742 4.6016 18.023 4.957 13.43 0.76562 27.348-4.9102 36.613-19.832 6.2812-10.117 10.387-24.078 14.438-37.875 8.1016-27.562 16.023-54.508 41.262-54.57 6.7773-0.019532 15.746 4.3594 23.465 8.1289 0.87891 0.42969 1.7344 0.84766 2.5586 1.2422 1.0273-2.3047 2.25-5.207 3.293-7.7109 0.78516-1.8555 1.4766-3.5195 1.8477-4.3477 0.82031-1.8867 3.0156-2.7422 4.8984-1.9219 1.8867 0.82031 2.7422 3.0156 1.9219 4.8984-0.55078 1.2617-1.1484 2.6797-1.8125 4.2656-1.6602 3.9375-3.7227 8.8477-4.9648 11.266l-0.019531 0.039063c-0.066407 0.14844-0.14844 0.29688-0.23438 0.42969-5.9922 11.379-13.32 21.129-23.922 28.047-10.145 6.6094-23.148 10.508-40.637 10.574l-0.52344 1.7656c-3.9297 13.375-7.9062 26.906-13.992 37.574 0.91406 0.42969 1.8555 0.83203 2.8203 1.2031 2.0898 0.8125 4.2734 1.4844 6.5508 2.0078 11.199 2.5391 22.746 1.5391 34.113-1.9141 13.16-3.9961 26.133-11.301 38.125-20.242-0.55078-5.1055-0.60547-10.566-0.14844-16.426 0.16016-2.0547 1.9609-3.5859 4.0117-3.4258 2.0547 0.16016 3.5859 1.9609 3.4258 4.0117-1.4766 18.668 2.8555 32.609 11.621 44.5 6.1211 8.2969 14.449 15.707 24.5 23.055 0.92578 0 1.8477 0.33594 2.5664 1.0273 0.45703 0.42969 0.77344 0.95312 0.96094 1.5039 3.6602 2.5742 7.5234 5.1523 11.574 7.7734 10.996 7.1133 20.477 15.68 26.312 25.441 5.2461 8.7734 7.5703 18.461 5.5078 28.867-1.3164 6.6367-3.293 12.004-5.8789 16.316-1.5312 2.5469-3.2578 4.7148-5.1992 6.543 15.027 3.5391 25.434-2.3711 34.73-8.9023 4.1719-3.7695 5.6367-10.172 5.8438-17.062 0.22266-7.5117-1.082-15.66-2.1172-21.906-1.0156-6.1055-3.5859-11.535-7.0078-16.641-3.5391-5.2734-8.0625-10.266-12.777-15.27-8.7734-9.3047-18.285-22.828-26.57-37.137-8.3164-14.363-15.438-29.586-19.387-42.215-1.2227-3.9102-1.7344-8.0938-1.5859-12.18 0.19531-5.4414 1.5781-10.734 4.0508-15.035 2.6211-4.5742 6.457-8.082 11.414-9.6328 1.3828-0.42969 2.8359-0.69922 4.3789-0.79297 0.10156-0.007813 0.20703-0.019532 0.30859-0.027344 0.28125-0.007812 0.55859-0.019531 0.83984-0.007812 0.28125 0 0.55859 0 0.83984 0.007812 0.10156 0 0.20703 0.007812 0.30859 0.027344 1.5391 0.09375 2.9961 0.36328 4.3789 0.79297 4.957 1.5508 8.793 5.0586 11.414 9.6328 2.4648 4.3008 3.8438 9.5938 4.0508 15.035 0.14844 4.0898-0.36328 8.2617-1.5859 12.18-2.7344 8.7344-6.8789 18.145-10.621 26.609-1.4844 3.3594-2.9023 6.5781-3.8359 8.793-0.039063 0.085938-0.074219 0.16797-0.11328 0.25391 0.53125 0.94141 1.0742 1.8867 1.6133 2.8281 7.0664 12.199 15.008 23.762 22.531 32.426 11.668-8.6328 20.926-17.387 27.02-27.645 6.3555-10.695 9.3242-23.191 8.0625-39.164-0.16016-2.0547 1.3711-3.8438 3.4258-4.0117 2.0547-0.16016 3.8438 1.3711 4.0117 3.4258 0.46484 5.8711 0.40234 11.32-0.14844 16.426 11.992 8.9492 24.957 16.25 38.125 20.254 11.367 3.4531 22.914 4.4531 34.113 1.9141 2.2773-0.51172 4.4609-1.1836 6.5508-2.0078 0.96094-0.375 1.9023-0.77344 2.8203-1.2031-6.0742-10.668-10.051-24.191-13.992-37.574l-0.52344-1.7656c-17.48-0.054687-30.484-3.957-40.629-10.566-10.602-6.9062-17.938-16.668-23.93-28.047-0.085938-0.14062-0.16016-0.28125-0.23438-0.42969l-0.019532-0.046875c-1.1016-2.1562-2.5938-6.1328-3.957-9.7812-0.89453-2.3906-1.7266-4.6211-2.332-5.9922-0.82031-1.8867 0.039062-4.0781 1.9219-4.8984 1.8867-0.82031 4.0781 0.039062 4.8984 1.9219 0.625 1.4297 1.5195 3.8164 2.4727 6.3672 0.75781 2.0078 1.5508 4.125 2.25 5.8906 0.80078-0.38281 1.6328-0.79297 2.4727-1.2031 7.7188-3.7695 16.688-8.1484 23.465-8.1289 25.238 0.074219 33.16 27.02 41.262 54.57 4.0508 13.793 8.1562 27.758 14.438 37.875 9.2695 14.926 23.184 20.598 36.613 19.832 6.2812-0.35547 12.461-2.1016 18.023-4.957 5.543-2.8477 10.473-6.793 14.27-11.562 4.2383-5.3203 7.0391-11.684 7.6641-18.695zm-59.387-42.215c0.92578 9.3164 2.6133 18.211 6.8242 25.863 5.8984-10.461 11.07-22.129 16.184-33.684 3.0234-6.832 6.0312-13.617 9.25-20.301 4.4062-9.1289 10.035-15.363 15.82-19.219 7.3359-4.8906 15-6.0195 20.973-4.4336 4.1172 1.0938 7.7578 3.4805 10.539 6.6094 0.71875 0.80078 1.3711 1.6602 1.9688 2.5586 0-0.55078-0.019531-1.0938-0.046875-1.6328-0.32812-5.9531-2.2852-11.406-5.5625-15.84-3.2461-4.4141-7.8125-7.8477-13.367-9.8203-4.0234-1.4297-8.5586-2.0898-13.504-1.8203-5.9258 0.32812-11.059 3.1094-15.465 7.5703-5.3125 5.3867-9.5938 13.168-12.945 22.129l-0.79297 2.1367c-4.918 13.188-10.5 28.141-19.871 39.891zm-362.3 25.863c4.2109-7.6523 5.8984-16.559 6.8242-25.863-9.3711-11.75-14.953-26.703-19.871-39.891l-0.79297-2.1367c-3.3516-8.9609-7.6328-16.742-12.945-22.129-4.4062-4.4609-9.5391-7.2422-15.465-7.5703-4.9453-0.26953-9.4844 0.39062-13.504 1.8203-5.5547 1.9688-10.117 5.4023-13.367 9.8203-3.2656 4.4414-5.2266 9.8828-5.5625 15.84-0.027344 0.54297-0.046876 1.082-0.046876 1.6328 0.59766-0.89453 1.25-1.7539 1.9688-2.5586 2.7812-3.125 6.4219-5.5156 10.539-6.6094 5.9727-1.5859 13.637-0.45703 20.973 4.4336 5.7852 3.8555 11.414 10.09 15.82 19.219 3.2305 6.6836 6.2266 13.469 9.25 20.301 5.1133 11.555 10.277 23.23 16.184 33.684zm269.23-45.883c-0.82031 0.40234-1.6328 0.79297-2.4375 1.1836 5.1055 8.9609 11.266 16.605 19.656 22.074 8.5586 5.5703 19.57 8.9805 34.336 9.332-6.5352-21.316-14.16-39.957-31.359-40.004-5.0117-0.019532-13.168 3.9766-20.199 7.4023zm7.8398 82.059c-7.7656-3.668-15.316-8.2227-22.531-13.375-1.5664 6.8711-4.125 13.094-7.5703 18.871-2.332 3.9219-5.0586 7.625-8.1562 11.172-0.085937 4.1055 0.33594 8.1562 1.2148 12.098 2.5938 11.695 9.1367 22.43 17.977 30.391 8.7812 7.9062 19.797 13.039 31.398 13.59 3.7969 0.17578 7.6523-0.12891 11.508-0.98047 5.6758-1.2617 10.191-3.6016 13.672-6.5898-3.6875 0.67188-7.6328 0.46484-11.547-0.50391-9.1172-2.2852-18.238-8.8672-23.391-18.387-4.0508-7.4844-5.8242-15.016-5.9844-22.855-0.16016-7.5117 1.1758-15.23 3.4062-23.426zm-92.504 60.426c-4.5 4.7891-8.0078 9.9414-10.098 15.383-2.1094 5.4883-2.7812 11.34-1.5586 17.492 1.4766 7.4375 3.7969 12.891 6.9062 16.742 1.4102 1.7539 3.0039 3.1914 4.7617 4.3398 2.5938-1.6992 4.8438-4.043 6.7109-7.1602 2.1367-3.5664 3.7969-8.1484 4.9453-13.926 1.6797-8.457-0.25391-16.379-4.5742-23.613-1.9219-3.2188-4.3203-6.3086-7.0859-9.2578zm-17.043 12.723c2.4727-6.4297 6.5352-12.414 11.676-17.883-3.5078-3.0625-7.3906-5.9375-11.527-8.6133-3.8438-2.4844-7.5234-4.9375-11.043-7.3906-4.0039 4.293-7.8125 8.5977-10.922 13.094-3.6758 5.3125-6.4414 10.977-7.5039 17.359-1.9219 11.555-1.9336 22.98-0.039062 33.523 2.3047 12.832 7.4102 24.379 15.309 33.246 7.8008 8.7734 18.379 14.953 31.695 17.164 8.0273 1.3359 17.043 1.25 27.059-0.54297 16.895-3.0352 22.66-13.457 28.375-23.789 3.0781-5.5703 6.1523-11.125 10.836-15.914 0.74609-0.75781 1.7461-1.6133 2.9492-2.4727 3.1172-2.2227 7.7852-4.5742 12.844-5.2734 0.28906-0.039063 0.58984-0.074219 0.87891-0.10156-2.2852-1.4453-4.6016-2.4844-6.7188-2.957-9.9023-2.2383-17.844 3.4922-26.395 9.668-1.0938 0.78516-2.1914 1.5781-3.3047 2.3711l-0.039063 0.027344c-11.023 7.7852-23.438 14.969-42.664 9.7148-5.9453-1.625-10.965-4.6836-14.969-9.6602-3.8633-4.7969-6.7031-11.312-8.418-19.984-1.5039-7.5781-0.66406-14.793 1.9414-21.578zm17.359-87.379c0.55078-1.25 1.082-2.4727 1.6328-3.707 3.6602-8.2969 7.7266-17.52 10.324-25.824 0.98047-3.125 1.3906-6.4492 1.2695-9.6992-0.16016-4.2383-1.2148-8.3242-3.0898-11.602-1.7188-3.0039-4.1328-5.2734-7.1484-6.2148-1.0273-0.31641-2.1289-0.49609-3.3047-0.51172-1.1758 0.007813-2.2773 0.1875-3.3047 0.51172-3.0156 0.94141-5.4336 3.2109-7.1484 6.2148-1.875 3.2773-2.9297 7.3555-3.0898 11.602-0.12109 3.2461 0.28906 6.5703 1.2695 9.6992 2.7812 8.8945 7.2344 19.18 12.59 29.531zm-36.98 155.68c-7.4844-8.418-12.723-18.93-15.688-30.586-0.074219-0.046875-0.14062-0.09375-0.20703-0.14062-4.0234-2.875-7.9531-5.5156-12.004-7.0938-3.7812-1.4766-7.7656-2.0547-12.266-1.0352-2.1172 0.47656-4.4336 1.5117-6.7188 2.957 0.28906 0.027344 0.58984 0.066406 0.87891 0.10156 5.0586 0.69922 9.7266 3.0508 12.844 5.2734 1.1953 0.84766 2.2031 1.707 2.9492 2.4727 4.6758 4.7891 7.7461 10.34 10.836 15.914 5.7227 10.34 11.48 20.766 28.375 23.789 2.3164 0.41016 4.5742 0.73828 6.7852 0.96875-6.0469-3.332-11.312-7.6055-15.781-12.637zm-45.574-222.32c-0.80078-0.38281-1.6055-0.78516-2.4375-1.1836-7.0273-3.4336-15.184-7.4219-20.199-7.4023-17.211 0.046876-24.828 18.676-31.359 40.004 14.773-0.36328 25.789-3.7617 34.348-9.3438 8.3906-5.4688 14.543-13.113 19.648-22.074zm12.254 67.508c-7.2148 5.1445-14.766 9.707-22.531 13.367 2.2227 8.1953 3.5664 15.914 3.4062 23.426-0.16797 7.8398-1.9414 15.371-5.9844 22.855-5.1523 9.5312-14.27 16.109-23.391 18.387-3.9102 0.98047-7.8477 1.1836-11.547 0.50391 3.4805 2.9766 8 5.3281 13.672 6.5898 3.8555 0.85938 7.7188 1.168 11.508 0.98047 11.602-0.55078 22.613-5.6836 31.398-13.59 8.8398-7.9609 15.383-18.695 17.977-30.391 0.87891-3.9375 1.2969-8 1.2148-12.098-1.4844-1.6992-2.8828-3.4453-4.1992-5.2188-5.4805-7.4297-9.4062-15.531-11.527-24.828z"/>
  <use x="70" y="560.140625" xlink:href="#w"/>
  <use x="70.035156" y="560.140625" xlink:href="#e"/>
  <use x="70.058594" y="560.140625" xlink:href="#b"/>
  <use x="70.089844" y="560.140625" xlink:href="#a"/>
  <use x="70.121094" y="560.140625" xlink:href="#d"/>
  <use x="70.144531" y="560.140625" xlink:href="#b"/>
  <use x="70.175781" y="560.140625" xlink:href="#l"/>
  <use x="70.222656" y="560.140625" xlink:href="#k"/>
  <use x="70.257812" y="560.140625" xlink:href="#j"/>
  <use x="70.304688" y="560.140625" xlink:href="#i"/>
  <use x="70.34375" y="560.140625" xlink:href="#v"/>
  <use x="70.359375" y="560.140625" xlink:href="#b"/>
  <use x="70.390625" y="560.140625" xlink:href="#f"/>
  <use x="70.425781" y="560.140625" xlink:href="#a"/>
  <use x="70.472656" y="560.140625" xlink:href="#h"/>
  <use x="70.507812" y="560.140625" xlink:href="#a"/>
  <use x="70.539062" y="560.140625" xlink:href="#f"/>
  <use x="70.570312" y="560.140625" xlink:href="#a"/>
  <use x="70.601562" y="560.140625" xlink:href="#g"/>
  <use x="70.628906" y="560.140625" xlink:href="#c"/>
  <use x="70.664062" y="560.140625" xlink:href="#u"/>
  <use x="70.691406" y="560.140625" xlink:href="#g"/>
  <use x="70.722656" y="560.140625" xlink:href="#t"/>
  <use x="70.75" y="560.140625" xlink:href="#a"/>
  <use x="70" y="560.1875" xlink:href="#s"/>
  <use x="70.019531" y="560.1875" xlink:href="#e"/>
  <use x="70.042969" y="560.1875" xlink:href="#c"/>
  <use x="70.074219" y="560.1875" xlink:href="#r"/>
  <use x="70.140625" y="560.1875" xlink:href="#d"/>
  <use x="70.164062" y="560.1875" xlink:href="#q"/>
  <use x="70.195312" y="560.1875" xlink:href="#b"/>
  <use x="70.242188" y="560.1875" xlink:href="#p"/>
  <use x="70.28125" y="560.1875" xlink:href="#c"/>
  <use x="70.316406" y="560.1875" xlink:href="#o"/>
  <use x="70.347656" y="560.1875" xlink:href="#f"/>
  <use x="70.398438" y="560.1875" xlink:href="#h"/>
  <use x="70.433594" y="560.1875" xlink:href="#e"/>
  <use x="70.453125" y="560.1875" xlink:href="#c"/>
  <use x="70.488281" y="560.1875" xlink:href="#n"/>
  <use x="70.503906" y="560.1875" xlink:href="#b"/>
  <use x="70.535156" y="560.1875" xlink:href="#m"/>
  <use x="70.5625" y="560.1875" xlink:href="#d"/>
 </g>
</svg>
